<?xml version="1.0" encoding="UTF-8" standalone="no"?>
<!-- Created with Inkscape (http://www.inkscape.org/) -->

<svg
   xmlns:dc="http://purl.org/dc/elements/1.1/"
   xmlns:cc="http://creativecommons.org/ns#"
   xmlns:rdf="http://www.w3.org/1999/02/22-rdf-syntax-ns#"
   xmlns:svg="http://www.w3.org/2000/svg"
   xmlns="http://www.w3.org/2000/svg"
   xmlns:sodipodi="http://sodipodi.sourceforge.net/DTD/sodipodi-0.dtd"
   xmlns:inkscape="http://www.inkscape.org/namespaces/inkscape"
   width="210mm"
   height="297mm"
   viewBox="0 0 744.09448819 1052.3622047"
   id="svg2"
   version="1.1"
   inkscape:version="0.91 r13725"
   sodipodi:docname="megacorp-logo.svg">
  <defs
     id="defs4" />
  <sodipodi:namedview
     id="base"
     pagecolor="#ffffff"
     bordercolor="#666666"
     borderopacity="1.0"
     inkscape:pageopacity="0.0"
     inkscape:pageshadow="2"
     inkscape:zoom="0.35"
     inkscape:cx="-67.857143"
     inkscape:cy="548.23659"
     inkscape:document-units="px"
     inkscape:current-layer="layer1"
     showgrid="false"
     inkscape:window-width="1366"
     inkscape:window-height="706"
     inkscape:window-x="0"
     inkscape:window-y="40"
     inkscape:window-maximized="1" />
  <metadata
     id="metadata7">
    <rdf:RDF>
      <cc:Work
         rdf:about="">
        <dc:format>image/svg+xml</dc:format>
        <dc:type
           rdf:resource="http://purl.org/dc/dcmitype/StillImage" />
        <dc:title></dc:title>
      </cc:Work>
    </rdf:RDF>
  </metadata>
  <g
     inkscape:label="Layer 1"
     inkscape:groupmode="layer"
     id="layer1">
    <path
       style="fill:#1f57f6;fill-opacity:1;fill-rule:evenodd;stroke:#000000;stroke-width:0;stroke-linecap:butt;stroke-linejoin:miter;stroke-miterlimit:4;stroke-dasharray:none;stroke-opacity:1"
       d="M 365.71484 272.36133 C 206.34059 272.36087 77.14212 401.55934 77.142578 560.93359 C 77.143202 720.30708 206.34135 849.50437 365.71484 849.50391 C 525.08756 849.50329 654.28454 720.30631 654.28516 560.93359 C 654.28562 401.5601 525.08833 272.36195 365.71484 272.36133 z M 191.00391 397.90234 L 294.29297 397.90234 L 365.96289 564.66016 L 438.05469 397.90234 L 541.13281 397.90234 L 566.84766 709.50391 L 464.4043 709.50391 L 464.4043 535.88281 L 391.89062 649.60547 L 340.45703 649.60547 L 267.94531 538.73828 L 267.94531 709.50391 L 165.28906 709.50391 L 191.00391 397.90234 z M 314.28516 689.50586 L 412.85742 689.50586 L 412.85742 788.07617 L 314.28516 788.07617 L 314.28516 689.50586 z "
       id="path3336" />
  </g>
</svg>
